<?xml version="1.0" encoding="utf-8"?>
<!-- Generator: Adobe Illustrator 22.0.0, SVG Export Plug-In . SVG Version: 6.00 Build 0)  -->
<svg version="1.1" id="Слой_1" xmlns="http://www.w3.org/2000/svg" xmlns:xlink="http://www.w3.org/1999/xlink" x="0px" y="0px"
	 viewBox="0 0 506.9 152" style="enable-background:new 0 0 506.9 152;" xml:space="preserve">
<style type="text/css">
	.st0{clip-path:url(#SVGID_2_);fill:#EB3333;}
	.st1{clip-path:url(#SVGID_4_);fill:#EB3333;}
	.st2{clip-path:url(#SVGID_6_);fill:#EB3333;}
	.st3{clip-path:url(#SVGID_8_);fill:#EB3333;}
	.st4{clip-path:url(#SVGID_10_);fill:#EB3333;}
	.st5{clip-path:url(#SVGID_12_);fill:#EB3333;}
	.st6{clip-path:url(#SVGID_14_);fill:#EB3333;}
	.st7{clip-path:url(#SVGID_16_);fill:#EB3333;}
	.st8{clip-path:url(#SVGID_18_);fill:#EB3333;}
	.st9{clip-path:url(#SVGID_20_);fill:#EB3333;}
	.st10{clip-path:url(#SVGID_22_);fill:#EB3333;}
	.st11{fill-rule:evenodd;clip-rule:evenodd;fill:#EB3333;}
</style>
<g>
	<g>
		<g>
			<g>
				<defs>
					<rect id="SVGID_1_" x="-133" y="-129" width="770.9" height="412.5"/>
				</defs>
				<clipPath id="SVGID_2_">
					<use xlink:href="#SVGID_1_"  style="overflow:visible;"/>
				</clipPath>
				<path class="st0" d="M276,79.7h-9.4V18.1h9.4v24.1h1.6c5.1,0,6.8-5.5,6.8-9.7V18.1h9.4v14.1c0,6.5-2.4,11.3-7.1,14.5
					c5.1,3.6,7.1,8,7.1,14.5v18.5h-9.4V60.8c0-4-1.9-8.8-6.7-8.8h-1.6L276,79.7L276,79.7z M435.9,79.7V18.1h8.4v36l9.7-36h10.5v61.6
					H456V36.8l-11.6,42.9H435.9z M471.1,79.7V18.1h8.4v36l9.7-36h10.5v61.6h-8.5V36.8l-11.6,42.9H471.1z M495.7,10.7H475V3.5h20.7
					V10.7z M411.9,79.7h-9.4V18.1h9.4v24.1h1.6c5.1,0,6.8-5.5,6.8-9.7V18.1h9.4v14.1c0,6.5-2.4,11.3-7.1,14.5
					c5.1,3.6,7.1,8,7.1,14.5v18.5h-9.4V60.8c0-4-1.9-8.8-6.7-8.8H412L411.9,79.7L411.9,79.7z M241.4,79.6H232V18h9.4h8.9h9.6v24.7
					h-9.6V26.8h-8.9v44h8.9V54.9h9.6v24.7h-9.6C250.3,79.6,241.4,79.6,241.4,79.6z M377.3,79.6h-9.4V18h9.4h8.9h9.6v24.7h-9.6V26.8
					h-8.9v44h8.9V54.9h9.6v24.7h-9.6C386.2,79.6,377.3,79.6,377.3,79.6z M215.8,26.8H207v44h8.8V26.8z M206.8,79.6h-9.4V18h9.4h8.9
					h9.6v61.6h-9.6H206.8z M318.8,26.8H310v44h8.8V26.8z M309.9,79.6h-9.4V18h9.4h8.9h9.6v61.6h-9.6H309.9z M344.5,26.8v16.5
					c3.5,0.2,7.8,0,7.8-6.3v-5.6l0,0v-4.6H344.5z M344.5,52.1v18.7h7.8c0-4,0-8,0-12C352.2,52.5,348,51.9,344.5,52.1 M361.6,28.8
					v2.6v5c0,4.9-2,8.5-5.2,10.8c3.5,2.7,5.2,7,5.2,12.3v20.2c-5.7,0-11.4,0-17.2,0l0,0H335V18h9.4l0,0c5.7,0,11.4,0,17.2,0V28.8z
					 M170.9,59.3c2.5-13.2,5.7-27.9,7.2-41.2h12.7v61.6h-8.2V55.3l1-22c-1.2,7.1-5.8,33.2-11.7,45.7l0,0H171h-1l0,0
					c-5.9-12.5-10.5-38.6-11.7-45.7l1,22v24.4h-8.2V18.1h12.7C165.2,31.4,168.5,46.1,170.9,59.3"/>
			</g>
		</g>
	</g>
	<g>
		<g>
			<g>
				<defs>
					<rect id="SVGID_3_" x="-133" y="-129" width="770.9" height="412.5"/>
				</defs>
				<clipPath id="SVGID_4_">
					<use xlink:href="#SVGID_3_"  style="overflow:visible;"/>
				</clipPath>
				<polygon class="st1" points="180.5,151 170.8,151 162.7,122 160.3,122 160.3,151 151.1,151 151.1,89.6 160.3,89.6 160.3,113.2 
					163,113.2 170.8,89.6 180.5,89.6 171,117.6 				"/>
			</g>
		</g>
	</g>
	<g>
		<g>
			<g>
				<defs>
					<rect id="SVGID_5_" x="-133" y="-129" width="770.9" height="412.5"/>
				</defs>
				<clipPath id="SVGID_6_">
					<use xlink:href="#SVGID_5_"  style="overflow:visible;"/>
				</clipPath>
				<polygon class="st2" points="202.9,151 202.9,116.6 192.8,137.7 192.8,151 183.6,151 183.6,89.6 192.8,89.6 192.8,120.8 
					202.9,99.7 202.9,89.6 212.1,89.6 212.1,151 				"/>
			</g>
		</g>
	</g>
	<g>
		<g>
			<g>
				<defs>
					<rect id="SVGID_7_" x="-133" y="-129" width="770.9" height="412.5"/>
				</defs>
				<clipPath id="SVGID_8_">
					<use xlink:href="#SVGID_7_"  style="overflow:visible;"/>
				</clipPath>
				<path class="st3" d="M240.1,112.4c2.5,0,4,1.7,4,4v30.5c0,2.4-1.6,4-4,4h-22.7V89.6h25.9v8.8h-16.7v14H240.1z M226.5,142.2h8.3
					v-21h-8.3V142.2z"/>
			</g>
		</g>
	</g>
	<g>
		<g>
			<g>
				<defs>
					<rect id="SVGID_9_" x="-133" y="-129" width="770.9" height="412.5"/>
				</defs>
				<clipPath id="SVGID_10_">
					<use xlink:href="#SVGID_9_"  style="overflow:visible;"/>
				</clipPath>
				<polygon class="st4" points="248.9,89.6 271.7,89.6 271.7,98.3 258.1,98.3 258.1,113.2 271.3,113.2 271.3,122 258.1,122 
					258.1,142.2 271.7,142.2 271.7,151 248.9,151 				"/>
			</g>
		</g>
	</g>
	<g>
		<g>
			<g>
				<defs>
					<rect id="SVGID_11_" x="-133" y="-129" width="770.9" height="412.5"/>
				</defs>
				<clipPath id="SVGID_12_">
					<use xlink:href="#SVGID_11_"  style="overflow:visible;"/>
				</clipPath>
				<path class="st5" d="M285.7,130.8V151h-9.2V89.6h23.1c2.5,0,4,1.7,4,4v33.1c0,2.4-1.6,4-4,4h-13.9V130.8z M285.7,122h8.8V98.3
					h-8.8V122z"/>
			</g>
		</g>
	</g>
	<g>
		<g>
			<g>
				<defs>
					<rect id="SVGID_13_" x="-133" y="-129" width="770.9" height="412.5"/>
				</defs>
				<clipPath id="SVGID_14_">
					<use xlink:href="#SVGID_13_"  style="overflow:visible;"/>
				</clipPath>
				<path class="st6" d="M312.6,151c-2.5,0-4-1.7-4-4V93.6c0-2.4,1.6-4,4-4h22.7v17.5h-9.2v-8.8h-8.3v43.8h8.3v-11.4h9.2V151H312.6z
					"/>
			</g>
		</g>
	</g>
	<g>
		<g>
			<g>
				<defs>
					<rect id="SVGID_15_" x="-133" y="-129" width="770.9" height="412.5"/>
				</defs>
				<clipPath id="SVGID_16_">
					<use xlink:href="#SVGID_15_"  style="overflow:visible;"/>
				</clipPath>
				<polygon class="st7" points="368.2,89.6 368.2,151 359,151 359,98.3 349.3,98.3 349.3,151 340.1,151 340.1,89.6 				"/>
			</g>
		</g>
	</g>
	<g>
		<g>
			<g>
				<defs>
					<rect id="SVGID_17_" x="-133" y="-129" width="770.9" height="412.5"/>
				</defs>
				<clipPath id="SVGID_18_">
					<use xlink:href="#SVGID_17_"  style="overflow:visible;"/>
				</clipPath>
				<path class="st8" d="M377.5,151c-2.5,0-4-1.7-4-4V93.6c0-2.4,1.6-4,4-4H397c2.5,0,4,1.7,4,4v53.3c0,2.4-1.6,4-4,4h-19.5V151z
					 M391.8,98.3h-9.2v43.8h9.2V98.3z"/>
			</g>
		</g>
	</g>
	<g>
		<g>
			<g>
				<defs>
					<rect id="SVGID_19_" x="-133" y="-129" width="770.9" height="412.5"/>
				</defs>
				<clipPath id="SVGID_20_">
					<use xlink:href="#SVGID_19_"  style="overflow:visible;"/>
				</clipPath>
				<path class="st9" d="M415.5,130.8V151h-9.2V89.6h23.2c2.5,0,4,1.7,4,4v33.1c0,2.4-1.6,4-4,4h-14V130.8z M415.5,122h8.8V98.3
					h-8.8V122z"/>
			</g>
		</g>
	</g>
	<g>
		<g>
			<g>
				<defs>
					<rect id="SVGID_21_" x="-133" y="-129" width="770.9" height="412.5"/>
				</defs>
				<clipPath id="SVGID_22_">
					<use xlink:href="#SVGID_21_"  style="overflow:visible;"/>
				</clipPath>
				<polygon class="st10" points="436.6,89.6 463.3,89.6 463.3,98.3 454.5,98.3 454.5,151 445.3,151 445.3,98.3 436.6,98.3 				"/>
			</g>
		</g>
	</g>
</g>
<path class="st11" d="M47.5,126.9l2.8-7.5c0,0,0,0,0,0l0,0c-7.7,7.3-16.9,13.1-27.1,17.1c-0.2,0.1-0.3,0.1-0.5,0.2
	c-0.2,0.1-0.5,0.2-0.7,0.3c-0.2,0.1-0.4,0.2-0.6,0.2c-3.1,1.1-6.2,2-9.4,2.8v10.6h0c6.4-1.3,12.5-3.2,18.3-5.7
	c2.1-0.9,4.1-1.8,6.1-2.9c2.3-1.2,4.6-2.5,6.8-3.9L47.5,126.9z"/>
<path class="st11" d="M96.4,114.9c4.4,4.4,9.5,8,15,11.1c5.5,3.1,11.4,5.5,17.6,7.2v-10.8c-9.5-3-18-8.1-24.9-14.7
	C92.5,96.5,85.2,81.3,85.2,64.5V18.1H74.4l0,46.4c0,0,0,0.1,0,0.1c0,7.6,1.2,15.1,3.9,22.1C81.3,94.5,86.5,105,96.4,114.9"/>
<path class="st11" d="M12,114.8C12,114.8,12,114.8,12,114.8L12,114.8c7.7-2.8,14.6-7.1,20.3-12.5c10.4-9.9,16.9-23.6,16.9-38.7V53.1
	h0h0H38.4h0h0v10.5c0,12.2-5.3,23.3-13.7,31.4c-3.7,3.5-7.9,6.4-12.6,8.6V114.8z"/>
<path class="st11" d="M119.6,137.2c-0.2-0.1-0.4-0.1-0.6-0.2c-0.2-0.1-0.5-0.2-0.7-0.3c-0.2-0.1-0.3-0.1-0.5-0.2
	c-10.2-3.9-19.4-9.8-27.1-17.1l0,0c0,0,0,0,0,0l2.9,7.6l4.2,11.1c2.3,1.4,4.6,2.7,7,4c1.8,0.9,3.6,1.8,5.4,2.6
	c5.9,2.6,12.2,4.6,18.8,5.9h0v-10.6C125.8,139.2,122.6,138.3,119.6,137.2"/>
<path class="st11" d="M36.9,107.6c-6.9,6.6-15.4,11.7-24.9,14.7v10.8c6.2-1.7,12.2-4.1,17.6-7.2c5.5-3.1,10.6-6.7,15-11.1
	c9.9-9.9,15.1-20.4,18.1-28.2c2.7-7,3.9-14.6,3.9-22.1c0,0,0-0.1,0-0.1l0-46.4H55.8v46.4C55.8,81.3,48.5,96.5,36.9,107.6"/>
<path class="st11" d="M108.7,102.2c5.7,5.4,12.6,9.8,20.3,12.5l0,0c0,0,0,0,0,0c0,0,0,0,0,0v-11.3c-4.7-2.2-9-5.1-12.6-8.6
	c-8.5-8.1-13.7-19.2-13.7-31.4V53.1h0H91.7h0h0v10.5C91.7,78.6,98.2,92.3,108.7,102.2"/>
<path class="st11" d="M45.7,144.6l24.8-22l24.8,22L70.5,79.1L45.7,144.6z M77.9,119.3l-7.4-6.6l-7.4,6.6l7.4-19.5l5.5,14.6
	L77.9,119.3z"/>
</svg>
